<svg width="280" height="100" viewBox="150 53 280 213" fill="none" xmlns="http://www.w3.org/2000/svg">
<path d="M159.444 133.125C159.444 177.239 123.752 213 79.7222 213C35.6929 213 0 177.239 0 133.125C0 89.0113 35.6929 53.25 79.7222 53.25C123.752 53.25 159.444 89.0113 159.444 133.125Z" fill="#55E39F"/>
<path d="M159.444 133.125C159.444 177.239 123.752 213 79.7222 213C35.6929 213 0 177.239 0 133.125C0 89.0113 35.6929 53.25 79.7222 53.25C123.752 53.25 159.444 89.0113 159.444 133.125Z" fill="url(#paint0_linear)"/>
<path d="M81.6667 53.25H259.259L188.611 153.905L172.407 213H81.6667V53.25Z" fill="#55E39F"/>
<path d="M81.6667 53.25H259.259L188.611 153.905L172.407 213H81.6667V53.25Z" fill="url(#paint1_linear)"/>
<path d="M172.407 213L80.3521 53.25H264.463L172.407 213Z" fill="#3F31DE"/>
<path d="M172.407 213L80.3521 53.25H264.463L172.407 213Z" fill="url(#paint2_linear)"/>
<defs>
<linearGradient id="paint0_linear" x1="79.7222" y1="53.25" x2="79.7222" y2="213" gradientUnits="userSpaceOnUse">
<stop stop-color="#00C1FF"/>
<stop offset="1" stop-color="white" stop-opacity="0"/>
</linearGradient>
<linearGradient id="paint1_linear" x1="170.463" y1="53.25" x2="170.463" y2="213" gradientUnits="userSpaceOnUse">
<stop stop-color="#00C1FF"/>
<stop offset="1" stop-color="white" stop-opacity="0"/>
</linearGradient>
<linearGradient id="paint2_linear" x1="217.778" y1="129.878" x2="58.1889" y2="41.1713" gradientUnits="userSpaceOnUse">
<stop stop-color="#0047FF"/>
<stop offset="0.552083" stop-color="#5229E4" stop-opacity="0.170732"/>
<stop offset="1" stop-color="#3F31DE" stop-opacity="0"/>
</linearGradient>
</defs>
</svg>
