<?xml version="1.0" encoding="utf-8"?>
<!-- Generator: Adobe Illustrator 24.0.0, SVG Export Plug-In . SVG Version: 6.00 Build 0)  -->
<svg version="1.1" id="Layer_1" xmlns="http://www.w3.org/2000/svg" xmlns:xlink="http://www.w3.org/1999/xlink" x="0px" y="0px"
	 viewBox="0 0 558.52 558.28" style="enable-background:new 0 0 558.52 558.28;" xml:space="preserve">
<style type="text/css">
	.st0{fill:#E01F27;}
	.st1{fill:none;stroke:#FFFFFF;stroke-width:10;stroke-miterlimit:10;}
	.st2{fill:none;stroke:#FFFFFF;stroke-width:9;stroke-miterlimit:10;}
	.st3{fill:#FFFFFF;}
	.st4{fill:#FFFFFF;stroke:#FFFFFF;stroke-width:7;stroke-miterlimit:10;}
</style>
<circle class="st0" cx="279.26" cy="279.02" r="279.26"/>
<path class="st1" d="M171.74,418.54L324.97,94.6c0.98-2.08,3.89-2.18,5.03-0.19l27.05,47.66"/>
<path class="st1" d="M337.74,105.02l9.14-18.07c1.01-2,3.83-2.09,4.97-0.16l22.93,38.84h19.57l27.18,35.13
	c0.31,0.4,0.72,0.71,1.18,0.9l49.84,20.04c0.9,0.36,1.55,1.16,1.73,2.11c1.23,6.59,2.66,32.45-45.33,47.86
	c-0.28,0.09-0.59,0.14-0.89,0.14h-68.94"/>
<path class="st2" d="M452.61,173.67c0,0-4.6,29.82,18.52,28.85"/>
<path class="st1" d="M176.26,472.33l-13.7-162.78c0,0-13.92-69.61-83.82-45.01c-1.94,0.68-2.5,3.17-1.05,4.63
	c6.91,6.97,22.87,24.88,25,43.51l12.03,127.64c0.07,0.78,0.31,1.53,0.69,2.22C118.53,448.16,134.63,472.96,176.26,472.33"/>
<path class="st1" d="M341.42,352.88l-24.08,89.57c-0.48,1.78,0.84,3.54,2.69,3.57c8.5,0.15,29.1,2.63,33.02,22.94
	c0.34,1.75-1.01,3.37-2.79,3.37H176.26"/>
<line class="st1" x1="373.48" y1="233.63" x2="357.05" y2="294.75"/>
<path class="st1" d="M388.74,473.04h55.47c1.49,0,2.73-1.15,2.83-2.64c0.39-5.93-1.55-20.1-27.75-24.43
	c-0.99-0.16-1.83-0.82-2.2-1.75l-68.14-171.19"/>
<line class="st1" x1="388.73" y1="473.04" x2="333.41" y2="332.56"/>
<line class="st1" x1="389.13" y1="125.63" x2="347.72" y2="125.63"/>
<circle class="st3" cx="359.13" cy="231.8" r="4.96"/>
<circle class="st3" cx="348.96" cy="273.02" r="4.96"/>
<circle class="st3" cx="333.41" cy="332.56" r="4.96"/>
<circle class="st3" cx="263.3" cy="380.88" r="4.96"/>
<circle class="st3" cx="357.05" cy="142.33" r="4.96"/>
<circle class="st4" cx="389.13" cy="174.9" r="4.96"/>
<circle class="st3" cx="388.74" cy="473.04" r="4.96"/>
<path class="st1" d="M318.09,444.36c0,0,7.04-54.93-54.78-63.48"/>
</svg>
