<?xml version="1.0" encoding="utf-8"?>
<!-- Generator: Adobe Illustrator 24.2.3, SVG Export Plug-In . SVG Version: 6.00 Build 0)  -->
<svg version="1.1" id="Layer_1" xmlns="http://www.w3.org/2000/svg" xmlns:xlink="http://www.w3.org/1999/xlink" x="0px" y="0px"
	 viewBox="0 0 493.16 493.16" style="enable-background:new 0 0 493.16 493.16;" xml:space="preserve">
<style type="text/css">
	.st0{fill:#FFFFFF;}
</style>
<g>
	<path d="M456.59,246.82c0,46-0.48,92,0.21,137.99c0.33,22.28-8.23,39.68-24.21,54.13c-19.31,17.46-42.5,27.85-66.95,35.59
		c-45.8,14.49-92.88,18.74-140.65,16.57c-34.08-1.55-67.58-6.63-100.04-17.44c-25.32-8.43-49.3-19.42-68.46-38.73
		c-13.23-13.34-20.11-29.05-20.04-48.35c0.33-92.66,0.47-185.32-0.08-277.98c-0.13-22.71,8.52-40.26,24.88-54.81
		c18.52-16.47,40.55-26.51,63.79-34.19C155.55,9.49,186.96,4.28,219,2.41c46.21-2.7,91.83,0.72,136.53,13.27
		c26.46,7.43,51.68,17.62,73.19,35.31c13.85,11.39,24.39,25.05,27.27,43.38c0.49,3.11,0.57,6.3,0.58,9.45
		C456.6,151.49,456.59,199.16,456.59,246.82z M56.59,244.96c0,19.06,0.26,36.72-0.1,54.37c-0.2,10.08,3.29,18.48,9.34,26.14
		c7.35,9.3,16.63,16.31,26.83,22.08c37.85,21.39,79.37,29.55,122.05,33.01c24.44,1.98,48.88,1.57,73.32-0.84
		c29.54-2.91,58.4-8.72,86.1-19.5c17.76-6.91,34.66-15.49,48.29-29.23c7.62-7.68,13.94-16.36,14.09-27.77
		c0.24-18.32,0.07-36.65,0.05-54.97c0-0.74-0.18-1.47-0.16-1.26c-10.86,7.2-21.24,15.38-32.74,21.46
		c-40.1,21.21-83.76,29.04-128.46,32.16c-31.32,2.19-62.52,0.72-93.58-3.9c-28.68-4.26-56.54-11.4-82.98-23.52
		C83.5,266.23,69.52,257.43,56.59,244.96z M56.59,145.34c0,18.73,0.23,36.52-0.09,54.31c-0.18,9.71,3.17,17.84,8.93,25.28
		c7.47,9.64,17.03,16.82,27.54,22.75c37.72,21.29,79.08,29.38,121.6,32.86c24.43,2,48.88,1.58,73.32-0.81
		c29.38-2.88,58.08-8.65,85.66-19.27c17.78-6.85,34.67-15.43,48.46-28.98c9.77-9.6,15.58-20.74,14.74-35.11
		c-0.71-11.95-0.14-23.98-0.14-35.98c0-4.75,0-9.5,0-13.44c-11.09,7.29-21.63,15.47-33.24,21.62
		c-39.79,21.07-83.12,28.85-127.47,32.02c-35.51,2.54-70.84,0.67-105.86-5.88C128.8,187.01,89.45,174.9,56.59,145.34z
		 M241.51,184.68c36.6-0.07,68.21-3.19,99.19-11.14c28.11-7.22,54.96-17.35,77.18-36.89c10.42-9.17,16.83-20.74,16.6-34.89
		c-0.3-18.49-10.27-31.92-24.92-41.79c-22.31-15.04-47.21-24.27-73.3-30.32c-51.46-11.92-103.32-13.08-155.37-4.79
		c-30.88,4.92-60.78,13.29-87.91,29.49c-12.72,7.6-24.65,15.72-30.94,30.45c-9.05,21.2,1.82,44.27,13.29,52.95
		c14.22,10.76,29.6,19.67,46.4,26.06C161.84,179.06,203.6,184.2,241.51,184.68z M56.59,345.91c0,1.83,0,3.42,0,5.01
		c0,12.83,0.27,25.66-0.09,38.48c-0.28,9.89,3.18,18.16,9.08,25.73c7.61,9.77,17.37,16.96,28.02,22.95
		c33.93,19.09,71.08,27.27,109.27,31.44c28.37,3.1,56.8,3.01,85.24,0.18c31.04-3.08,61.31-9.33,90.25-21.19
		c14.68-6.02,28.6-13.44,40.53-24.1c11.53-10.31,18.95-22.33,17.85-38.76c-0.79-11.78-0.14-23.65-0.17-35.47
		c0-1.38-0.19-2.77-0.22-3.13c-10.84,7.17-21.25,15.34-32.75,21.43c-39.94,21.16-83.45,29.03-127.97,32.1
		c-39.19,2.7-78.12,0.22-116.6-7.94c-28.72-6.09-56.46-14.97-81.37-31.01C70.49,356.98,63.91,351.4,56.59,345.91z"/>
	<path class="st0" d="M56.59,244.96c12.93,12.48,26.91,21.27,42.06,28.22c26.44,12.12,54.31,19.26,82.98,23.52
		c31.06,4.61,62.27,6.08,93.58,3.9c44.7-3.12,88.36-10.94,128.46-32.16c11.49-6.08,21.88-14.26,32.74-21.46
		c-0.03-0.21,0.16,0.53,0.16,1.26c0.02,18.33,0.18,36.65-0.05,54.97c-0.15,11.41-6.47,20.09-14.09,27.77
		c-13.63,13.74-30.53,22.32-48.29,29.23c-27.71,10.77-56.56,16.58-86.1,19.5c-24.43,2.41-48.88,2.82-73.32,0.84
		c-42.69-3.47-84.2-11.62-122.05-33.01c-10.2-5.76-19.49-12.78-26.83-22.08c-6.05-7.66-9.55-16.06-9.34-26.14
		C56.85,281.68,56.59,264.02,56.59,244.96z"/>
	<path class="st0" d="M56.59,145.34c32.86,29.56,72.21,41.67,113.43,49.37c35.02,6.54,70.35,8.41,105.86,5.88
		c44.35-3.17,87.68-10.95,127.47-32.02c11.62-6.15,22.16-14.33,33.24-21.62c0,3.94,0,8.69,0,13.44c0,12-0.56,24.02,0.14,35.98
		c0.85,14.36-4.97,25.51-14.74,35.11c-13.79,13.56-30.68,22.14-48.46,28.98c-27.58,10.62-56.28,16.39-85.66,19.27
		c-24.44,2.4-48.89,2.82-73.32,0.81c-42.51-3.48-83.87-11.57-121.6-32.86c-10.51-5.93-20.07-13.11-27.54-22.75
		c-5.76-7.43-9.1-15.57-8.93-25.28C56.82,181.86,56.59,164.07,56.59,145.34z"/>
	<path class="st0" d="M241.51,184.68c-37.91-0.48-79.67-5.62-119.79-20.87c-16.8-6.39-32.17-15.3-46.4-26.06
		C63.85,129.07,52.98,106,62.04,84.8c6.29-14.73,18.22-22.85,30.94-30.45c27.14-16.2,57.03-24.57,87.91-29.49
		c52.05-8.29,103.91-7.13,155.37,4.79c26.09,6.05,50.99,15.28,73.3,30.32c14.65,9.87,24.61,23.3,24.92,41.79
		c0.23,14.14-6.17,25.72-16.6,34.89c-22.21,19.55-49.06,29.68-77.18,36.89C309.72,181.49,278.12,184.61,241.51,184.68z
		 M154.23,109.92c-7.75,3.42-15.79,6.27-23.08,10.44c-4.28,2.45-8.68,6.39-10.64,10.74c-2.02,4.49-1.15,10.28-1.54,15.5
		c3.68,0.59,7.36,1.68,11.05,1.69c36.82,0.13,73.64,0.08,110.47,0.08c3.67,0,7.33,0.01,11-0.04c3.53-0.06,5.66-1.38,5.23-5.45
		c-0.28-2.59-0.05-5.24-0.05-8.5c7.71,0,14.99,0,22.26,0c29.16,0,58.32,0.02,87.47-0.02c6.81-0.01,7.15-0.43,7.15-6.95
		c0-22.16-0.13-44.32,0.11-66.48c0.05-4.49-1.67-6.02-5.71-5.99c-1.5,0.01-3-0.02-4.5-0.02c-53.82,0-107.63,0-161.45,0
		c-8.16,0-16.33,0.01-24.49,0.01c-3.94,0-6.39,1.26-5.84,5.9c0.33,2.79-0.18,5.68,0.12,8.48c0.44,4.04-0.98,5.47-5.08,6.66
		c-7.1,2.05-14.37,4.6-20.53,8.55c-8.77,5.63-8.4,14.11-0.03,20.45C148.76,106.96,151.77,108.43,154.23,109.92z"/>
	<path class="st0" d="M56.59,345.91c7.32,5.49,13.9,11.07,21.09,15.7c24.91,16.04,52.65,24.92,81.37,31.01
		c38.47,8.16,77.41,10.64,116.6,7.94c44.52-3.07,88.03-10.94,127.97-32.1c11.5-6.09,21.91-14.26,32.75-21.43
		c0.03,0.36,0.21,1.75,0.22,3.13c0.02,11.83-0.62,23.7,0.17,35.47c1.1,16.43-6.32,28.45-17.85,38.76
		c-11.93,10.66-25.85,18.09-40.53,24.1c-28.94,11.86-59.21,18.11-90.25,21.19c-28.44,2.83-56.87,2.91-85.24-0.18
		c-38.2-4.17-75.34-12.35-109.27-31.44c-10.65-5.99-20.41-13.18-28.02-22.95c-5.9-7.57-9.36-15.84-9.08-25.73
		c0.36-12.82,0.09-25.65,0.09-38.48C56.59,349.33,56.59,347.74,56.59,345.91z"/>
	<path d="M150.15,111.67c1.69-0.71,1.83-3.04,0.24-3.95c-1.43-0.83-2.9-1.72-4.25-2.75c-8.36-6.34-8.73-14.82,0.03-20.45
		c6.16-3.96,13.43-6.5,20.53-8.55c4.1-1.18,5.52-2.62,5.08-6.66c-0.3-2.8,0.21-5.69-0.12-8.48c-0.56-4.64,1.9-5.9,5.84-5.9
		c8.16,0,16.33-0.01,24.49-0.01c53.82,0,107.63,0,161.45,0c1.5,0,3,0.03,4.5,0.02c4.04-0.03,5.76,1.5,5.71,5.99
		c-0.23,22.16-0.11,44.32-0.11,66.48c0,6.52-0.34,6.94-7.15,6.95c-29.16,0.04-58.32,0.02-87.47,0.02c-6.58,0-13.17,0-20.08,0
		c-1.2,0-2.19,0.97-2.21,2.17c-0.05,2.31-0.13,4.34,0.08,6.33c0.44,4.07-1.7,5.4-5.23,5.45c-3.66,0.06-7.33,0.04-11,0.04
		c-36.82,0-73.64,0.05-110.47-0.08c-3.06-0.01-6.11-0.76-9.17-1.35c-1.06-0.21-1.81-1.14-1.78-2.22c0.13-4.69-0.34-9.66,1.44-13.61
		c1.96-4.35,6.36-8.29,10.64-10.74C137.17,116.92,143.69,114.37,150.15,111.67z M249.84,119.66c-1.32,0.59-1.73,2.27-0.83,3.41
		c4.11,5.18,9.39,6.95,16.64,6.8c30.3-0.6,60.62-0.24,90.93-0.24c1.24,0,2.49,0,3.76,0c1.22,0,2.21-0.99,2.21-2.21V62.1
		c0-1.22-0.99-2.21-2.21-2.21H184.9c-1.22,0-2.21,0.99-2.21,2.21v9.4c0,1.23,1.01,2.22,2.24,2.21c2.6-0.03,5.04-0.09,7.48,0.04
		c11.22,0.58,22.21,2.32,32.27,7.71c5.39,2.89,10.71,6.39,10.65,13.31c-0.06,6.65-5.27,9.97-10.42,12.96
		c-0.04,0.03-0.09,0.05-0.13,0.08c-1.63,0.94-1.42,3.36,0.36,3.99c3.95,1.42,7.69,2.77,11.51,3.85c2.17,0.61,4.92,0.77,6.95-0.03
		c7.89-3.11,15.57-6.75,23.39-10.06c2.27-0.96,4.59-1.61,7.01-0.75c1.87,0.67,1.94,3.29,0.13,4.1
		C265.74,112.62,257.72,116.17,249.84,119.66z M131.49,143.24h112.3c1.1,0,2.05-0.82,2.19-1.91c1.16-8.75-2.81-14.94-10.32-18.67
		c-6.79-3.37-14.13-5.7-21.38-8.02c-1.84-0.59-4.59,0.08-6.35,1.14c-4.52,2.72-8.81,5.84-13.14,8.87c-4.29,3-9.99,3-14.29,0.01
		c-4.33-3.02-8.64-6.06-13.06-8.94c-1.29-0.84-3.13-1.69-4.49-1.42c-9.71,1.91-19.03,4.91-26.94,11.19
		c-5.22,4.15-7.62,9.34-6.71,15.87C129.46,142.45,130.4,143.24,131.49,143.24z M188.16,77.28c-0.3-0.07-0.62-0.07-0.93,0
		c-8.48,1.84-16.86,3.19-24.92,5.62c-5.53,1.67-11.49,4.65-11.63,11.53c-0.14,7.23,6.13,9.84,11.68,12.07
		c12.05,4.84,24.72,5.75,37.32,3.34c6.88-1.32,13.88-3.75,19.91-7.25c7.31-4.24,6.93-11.08,0.03-16.13c-2.12-1.55-4.5-3.11-7-3.73
		C204.61,80.7,196.49,79.09,188.16,77.28z M187.43,115.8h-0.08c-2.46,0-3.12,3.56-0.77,4.28c0.43,0.13,0.86,0.16,1.3,0.09
		C190.51,119.75,190.08,115.8,187.43,115.8z"/>
	<path class="st0" d="M247.39,120.75c9.77-4.33,19.72-8.74,30.26-13.41c-3.79-3.96-7.28-3.22-10.67-1.79
		c-7.82,3.3-15.5,6.95-23.39,10.06c-2.03,0.8-4.78,0.64-6.95,0.03c-5.26-1.48-10.38-3.49-16.08-5.47c1.64-0.92,3-1.67,4.34-2.45
		c5.15-2.99,10.36-6.31,10.42-12.96c0.06-6.91-5.25-10.42-10.65-13.31c-10.05-5.39-21.04-7.13-32.27-7.71
		c-3.12-0.16-6.27-0.02-9.72-0.02c0-4.83,0-9.2,0-13.83c59.97,0,119.69,0,179.86,0c0,23.12,0,46.12,0,69.74c-2.07,0-4.02,0-5.97,0
		c-30.31,0-60.63-0.36-90.93,0.24C257.41,130.03,251.71,127.73,247.39,120.75z M346.96,86.14c-0.01-0.54-0.02-1.08-0.03-1.63
		c-1.79-0.53-3.58-1.51-5.38-1.52c-28.31-0.09-56.63-0.09-84.94,0.02c-1.74,0.01-3.48,1.06-5.21,1.63c0.01,0.54,0.02,1.07,0.04,1.61
		c1.95,0.46,3.91,1.31,5.86,1.32c27.98,0.09,55.96,0.09,83.95-0.01C343.14,87.56,345.05,86.64,346.96,86.14z M251.38,98.35
		c-0.01,0.61-0.01,1.23-0.02,1.84c1.95,0.48,3.89,1.37,5.84,1.37c27.98,0.09,55.96,0.09,83.94,0c1.92-0.01,3.85-0.89,5.77-1.37
		c0-0.63-0.01-1.27-0.01-1.9c-2.1-0.46-4.19-1.32-6.29-1.33c-27.65-0.09-55.3-0.09-82.94,0C255.58,96.98,253.48,97.87,251.38,98.35z
		 M251.38,70.29c-0.01,0.64-0.02,1.29-0.03,1.93c2.09,0.47,4.18,1.34,6.27,1.35c20.65,0.1,41.31,0.1,61.97,0
		c2.06-0.01,4.11-0.91,6.17-1.39c-0.02-0.66-0.05-1.31-0.07-1.97c-2.14-0.43-4.29-1.22-6.43-1.23c-20.49-0.09-40.98-0.1-61.47,0
		C255.64,68.99,253.51,69.83,251.38,70.29z"/>
	<path class="st0" d="M129.65,143.24c-1.68-7.42,0.65-13.21,6.37-17.75c7.91-6.28,17.23-9.29,26.94-11.19
		c1.37-0.27,3.2,0.58,4.49,1.42c4.88,3.18,9.63,6.56,14.42,9.89c3.88,2.69,7.72,2.66,11.6-0.02c4.79-3.32,9.49-6.8,14.47-9.8
		c1.75-1.06,4.51-1.73,6.35-1.14c7.25,2.31,14.59,4.64,21.38,8.02c8.04,4,12.02,10.82,9.99,20.58
		C207.13,143.24,168.45,143.24,129.65,143.24z"/>
	<path class="st0" d="M187.7,77.18c8.49,1.85,16.77,3.49,24.94,5.55c2.49,0.63,4.87,2.18,7,3.73c6.9,5.05,7.28,11.88-0.03,16.13
		c-6.03,3.5-13.03,5.93-19.91,7.25c-12.6,2.42-25.27,1.5-37.32-3.34c-5.55-2.23-11.83-4.83-11.68-12.07
		c0.14-6.88,6.1-9.86,11.63-11.53C170.52,80.42,179.06,79.06,187.7,77.18z"/>
	<path class="st0" d="M194.5,115.8c-7.14,5.88-7.36,5.87-13.07,0C185.63,115.8,189.61,115.8,194.5,115.8z"/>
	<path d="M346.96,86.14c-1.91,0.5-3.82,1.42-5.73,1.42c-27.98,0.09-55.96,0.09-83.95,0.01c-1.96-0.01-3.91-0.86-5.86-1.32
		c-0.01-0.54-0.02-1.07-0.04-1.61c1.74-0.57,3.47-1.62,5.21-1.63c28.31-0.11,56.63-0.11,84.94-0.02c1.79,0.01,3.59,0.99,5.38,1.52
		C346.94,85.06,346.95,85.6,346.96,86.14z"/>
	<path d="M251.38,98.35c2.1-0.48,4.2-1.36,6.3-1.37c27.65-0.09,55.3-0.09,82.94,0c2.1,0.01,4.19,0.87,6.29,1.33
		c0,0.63,0.01,1.27,0.01,1.9c-1.92,0.48-3.85,1.36-5.77,1.37c-27.98,0.09-55.96,0.09-83.94,0c-1.95-0.01-3.9-0.9-5.84-1.37
		C251.37,99.58,251.38,98.96,251.38,98.35z"/>
	<path d="M251.38,70.29c2.13-0.46,4.26-1.31,6.4-1.32c20.49-0.1,40.98-0.1,61.47,0c2.15,0.01,4.29,0.8,6.43,1.23
		c0.02,0.66,0.05,1.31,0.07,1.97c-2.06,0.48-4.11,1.38-6.17,1.39c-20.65,0.1-41.31,0.1-61.97,0c-2.09-0.01-4.18-0.88-6.27-1.35
		C251.36,71.58,251.37,70.93,251.38,70.29z"/>
</g>
</svg>
