<?xml version="1.0" encoding="utf-8"?>
<!-- Generator: Adobe Illustrator 24.2.3, SVG Export Plug-In . SVG Version: 6.00 Build 0)  -->
<svg version="1.1" id="Layer_1" xmlns="http://www.w3.org/2000/svg" xmlns:xlink="http://www.w3.org/1999/xlink" x="0px" y="0px"
	 viewBox="0 0 246.99 246.49" style="enable-background:new 0 0 246.99 246.49;" xml:space="preserve">
<style type="text/css">
	.st0{fill:#020202;}
	.st1{fill:#FDFDFD;}
	.st2{fill:#E42223;}
</style>
<g>
	<path class="st0" d="M138.48,2.02c14.66,0.81,29.05,3.26,43.08,7.58c11.89,3.66,23.22,8.55,32.94,16.57
		c9.21,7.6,14.18,16.91,14.09,29.38c-0.33,46.14-0.22,92.28-0.06,138.43c0.03,9.63-3.44,17.46-10.02,24.15
		c-7.68,7.8-17.1,12.85-27.15,16.79c-17.91,7.02-36.61,10.18-55.74,11.17c-24.81,1.29-49.21-0.93-72.93-8.64
		c-11.62-3.77-22.6-8.84-31.84-17.07c-8.17-7.28-12.48-16.05-12.41-27.39c0.26-46.81,0.13-93.62,0.08-140.43
		c-0.01-5.94,1.59-11.32,4.79-16.24c5.38-8.27,13.09-13.87,21.66-18.34C62.77,8.7,82,4.57,101.79,2.5
		c2.24-0.23,14.81-1.01,21.72-1.01 M218.4,123.21c-7.11,6.89-15.11,11.63-23.78,15.3c-18.77,7.95-38.5,11.37-58.73,12.52
		c-21.89,1.25-43.49-0.51-64.71-6.09c-13.43-3.53-26.28-8.51-37.39-17.17c-1.72-1.34-3.34-2.82-5.27-4.45
		c0,9.21,0.14,18.02-0.05,26.82c-0.12,5.22,1.64,9.58,4.87,13.47c6.86,8.24,16.06,12.99,25.77,16.85
		c16.33,6.49,33.39,9.49,50.86,10.6c21.38,1.36,42.51-0.2,63.24-5.71c11.97-3.18,23.49-7.54,33.5-15.11
		c5.31-4.03,9.83-8.72,11.47-15.5c0.08-0.32,0.22-0.65,0.22-0.97C218.41,143.73,218.4,133.7,218.4,123.21z M28.53,73.27
		c0,9.35,0.13,18.24-0.05,27.12c-0.1,5.03,1.65,9.22,4.68,13.03c4.39,5.51,10.06,9.39,16.22,12.59
		c18.18,9.46,37.84,13.31,58.03,14.93c12.21,0.98,24.43,0.8,36.64-0.4c14.64-1.44,28.95-4.29,42.71-9.58
		c8.95-3.44,17.45-7.73,24.39-14.54c4.88-4.78,7.72-10.34,7.39-17.51c-0.36-7.73-0.07-15.48-0.1-23.23c0-0.68,0.34-1.46-0.35-2.16
		c-6.84,6.63-14.87,11.35-23.55,15.03c-18.6,7.87-38.15,11.26-58.19,12.49c-19.86,1.22-39.52-0.16-58.91-4.57
		C59.61,92.42,42.64,86.38,28.53,73.27z M218.45,173.13c-3.74,3.61-7.39,6.46-11.34,8.91c-4.02,2.49-8.2,4.64-12.56,6.48
		c-19.1,8.06-39.16,11.46-59.73,12.53c-21.47,1.12-42.65-0.64-63.46-6.1c-13.52-3.55-26.44-8.53-37.62-17.25
		c-1.71-1.33-3.32-2.79-5.2-4.37c0,7.57,0.15,14.73-0.05,21.89c-0.14,5.13,1.63,9.41,4.75,13.26c5.14,6.35,11.88,10.56,19.14,14.01
		c19.98,9.49,41.32,12.98,63.16,13.88c12.4,0.51,24.77-0.06,37.09-1.87c13.06-1.92,25.84-4.9,37.98-10.13
		c8.82-3.8,17.17-8.4,23.32-16.12c2.42-3.03,4.39-6.38,4.47-10.33C218.57,189.85,218.45,181.79,218.45,173.13z M38.39,68.72
		c1.27,0.97,2.15,1.68,3.07,2.34c5.49,3.96,11.49,6.97,17.78,9.43c17.05,6.67,34.84,9.72,53.05,10.68
		c22.79,1.2,45.21-0.89,67.07-7.68c10.04-3.12,19.63-7.26,28-13.79c8.95-6.98,11.64-18.19,6.97-28.18c-0.87-1.86-1.82-2.3-3.8-1.95
		c-18.04,3.12-36.09,6.16-54.14,9.16c-1.77,0.29-2.99,0.46-2.61,2.9c0.34,2.22-1.02,4.13-2.55,5.75c-1.68,1.78-3.68,3.11-5.89,4.15
		c-8.44,3.96-17.39,4.91-26.56,4.24c-6.95-0.51-13.71-1.88-19.66-5.76c-1.48-0.96-2.78-1.15-4.42-0.86
		c-7.62,1.34-15.25,2.61-22.88,3.9C60.84,64.91,49.88,66.77,38.39,68.72z M208.35,34.14c-7.79-6.18-16.02-10.07-24.68-13.13
		c-15.81-5.57-32.17-8.22-48.87-9.12c-21.7-1.17-43.07,0.72-63.98,6.72C58.99,22,47.68,26.59,38.11,34.62
		c-8.06,6.76-10.13,18.07-5.2,27.42c0.67,1.28,1.4,1.57,2.76,1.34c17.88-3.07,35.76-6.14,53.67-9.06c2.65-0.43,4.6-0.84,4.08-4.15
		c-0.09-0.59,0.28-1.3,0.57-1.89c1.58-3.24,4.41-5.13,7.49-6.71c5.2-2.66,10.83-3.89,16.57-4.3c10.79-0.76,21.32,0.15,30.74,6.26
		c0.79,0.51,1.54,0.45,2.38,0.31c12.71-2.17,25.43-4.33,38.15-6.49C195.45,36.32,201.58,35.28,208.35,34.14z M123.66,42.51
		c-5.3,0.09-10.58,0.73-15.21,3.7c-4.95,3.17-5.07,7.79,0.05,10.53c9.73,5.21,19.85,5.24,29.63,0.23c5.78-2.96,5.5-7.91-0.2-11.17
		C133.54,43.29,128.69,42.68,123.66,42.51z"/>
	<path class="st1" d="M108.5,1.54c-2.14,0.98-4.47,0.73-6.71,0.96C82,4.57,62.77,8.7,44.96,17.98
		c-8.58,4.47-16.28,10.06-21.66,18.34c-3.2,4.92-4.8,10.3-4.79,16.24c0.05,46.81,0.18,93.62-0.08,140.43
		c-0.06,11.34,4.25,20.11,12.41,27.39c9.24,8.23,20.22,13.3,31.84,17.07c23.73,7.71,48.13,9.92,72.93,8.64
		c19.13-0.99,37.83-4.15,55.74-11.17c10.06-3.94,19.48-8.99,27.15-16.79c6.58-6.69,10.05-14.51,10.02-24.15
		c-0.16-46.14-0.27-92.29,0.06-138.43c0.09-12.46-4.87-21.77-14.09-29.38c-9.71-8.02-21.05-12.91-32.94-16.57
		c-14.03-4.32-28.42-6.77-43.08-7.58c-0.4-0.02-0.85,0.07-0.99-0.48c35.65,0,71.31,0.02,106.96-0.05c1.71,0,2.05,0.34,2.05,2.05
		c-0.05,80.47-0.05,160.94,0,241.41c0,1.71-0.33,2.05-2.05,2.05c-80.64-0.05-161.27-0.05-241.91,0c-1.71,0-2.05-0.33-2.05-2.05
		c0.05-80.47,0.05-160.94,0-241.41c0-1.71,0.33-2.05,2.05-2.05C37.86,1.56,73.18,1.54,108.5,1.54z"/>
	<path class="st1" d="M218.4,123.21c0,10.48,0,20.52-0.01,30.55c0,0.32-0.14,0.65-0.22,0.97c-1.64,6.78-6.15,11.48-11.47,15.5
		c-10,7.58-21.53,11.94-33.5,15.11c-20.73,5.51-41.85,7.07-63.24,5.71c-17.47-1.11-34.53-4.11-50.86-10.6
		c-9.71-3.86-18.91-8.61-25.77-16.85c-3.23-3.88-4.99-8.25-4.87-13.47c0.2-8.81,0.05-17.62,0.05-26.82c1.92,1.63,3.54,3.1,5.27,4.45
		c11.11,8.66,23.96,13.64,37.39,17.17c21.22,5.58,42.82,7.33,64.71,6.09c20.23-1.15,39.96-4.56,58.73-12.52
		C203.29,134.84,211.29,130.1,218.4,123.21z"/>
	<path class="st1" d="M28.53,73.27c14.11,13.11,31.08,19.15,48.89,23.2c19.39,4.41,39.05,5.79,58.91,4.57
		c20.04-1.23,39.59-4.62,58.19-12.49c8.69-3.68,16.71-8.4,23.55-15.03c0.69,0.7,0.35,1.48,0.35,2.16c0.03,7.74-0.26,15.5,0.1,23.23
		c0.34,7.17-2.51,12.73-7.39,17.51c-6.94,6.81-15.44,11.1-24.39,14.54c-13.76,5.28-28.07,8.13-42.71,9.58
		c-12.21,1.2-24.43,1.39-36.64,0.4c-20.19-1.62-39.85-5.47-58.03-14.93c-6.16-3.2-11.83-7.09-16.22-12.59
		c-3.03-3.81-4.78-8-4.68-13.03C28.66,91.51,28.53,82.62,28.53,73.27z"/>
	<path class="st1" d="M218.45,173.13c0,8.65,0.12,16.72-0.05,24.79c-0.08,3.95-2.05,7.29-4.47,10.33
		c-6.15,7.72-14.51,12.32-23.32,16.12c-12.14,5.23-24.91,8.21-37.98,10.13c-12.32,1.81-24.7,2.38-37.09,1.87
		c-21.84-0.9-43.18-4.39-63.16-13.88c-7.26-3.45-14-7.66-19.14-14.01c-3.12-3.85-4.9-8.13-4.75-13.26
		c0.2-7.15,0.05-14.32,0.05-21.89c1.88,1.58,3.49,3.04,5.2,4.37c11.18,8.72,24.1,13.7,37.62,17.25c20.81,5.46,41.99,7.22,63.46,6.1
		c20.58-1.07,40.64-4.47,59.73-12.53c4.35-1.84,8.54-3.99,12.56-6.48C211.06,179.59,214.71,176.74,218.45,173.13z"/>
	<path class="st1" d="M38.39,68.72c11.49-1.95,22.45-3.81,33.41-5.67c7.63-1.29,15.26-2.56,22.88-3.9c1.64-0.29,2.95-0.1,4.42,0.86
		c5.95,3.87,12.71,5.25,19.66,5.76c9.17,0.67,18.12-0.28,26.56-4.24c2.2-1.03,4.2-2.37,5.89-4.15c1.53-1.62,2.89-3.54,2.55-5.75
		c-0.38-2.45,0.84-2.61,2.61-2.9c18.06-3.01,36.11-6.04,54.14-9.16c1.99-0.34,2.93,0.09,3.8,1.95c4.67,9.99,1.98,21.2-6.97,28.18
		c-8.38,6.53-17.96,10.67-28,13.79c-21.86,6.79-44.28,8.88-67.07,7.68c-18.21-0.96-36-4.01-53.05-10.68
		c-6.28-2.46-12.29-5.47-17.78-9.43C40.54,70.4,39.66,69.69,38.39,68.72z"/>
	<path class="st2" d="M208.35,34.14c-6.77,1.15-12.9,2.18-19.04,3.22c-12.72,2.16-25.43,4.32-38.15,6.49
		c-0.84,0.14-1.59,0.2-2.38-0.31c-9.42-6.11-19.95-7.02-30.74-6.26c-5.75,0.41-11.38,1.63-16.57,4.3c-3.07,1.58-5.9,3.47-7.49,6.71
		c-0.29,0.59-0.66,1.3-0.57,1.89c0.52,3.31-1.43,3.72-4.08,4.15c-17.91,2.92-35.79,5.99-53.67,9.06c-1.36,0.23-2.09-0.06-2.76-1.34
		c-4.93-9.36-2.86-20.66,5.2-27.42c9.57-8.03,20.88-12.62,32.7-16.01c20.91-6,42.29-7.89,63.98-6.72c16.7,0.9,33.06,3.55,48.87,9.12
		C192.33,24.06,200.56,27.95,208.35,34.14z"/>
	<path class="st1" d="M123.66,42.51c5.02,0.17,9.87,0.78,14.26,3.28c5.7,3.26,5.98,8.22,0.2,11.17c-9.78,5.01-19.9,4.97-29.63-0.23
		c-5.12-2.74-5-7.36-0.05-10.53C113.09,43.24,118.37,42.6,123.66,42.51z"/>
</g>
</svg>
